<svg xmlns="http://www.w3.org/2000/svg" viewBox="0 0 2500.64 331.63"><title>logo-gold</title><path d="M288.1,341.76H270.75a7.63,7.63,0,0,1-5.06-1.65,11,11,0,0,1-3.07-4.28l-36.69-90.29H73.25L36.78,335.83A9.42,9.42,0,0,1,33.7,340a8.12,8.12,0,0,1-5.27,1.76H11.3L138.49,30.9H160.9Zm-208-112.92H219.34L155.85,71.76c-1-2.48-2-5.3-3.08-8.45s-2.05-6.48-3.07-10q-1.55,5.28-3.08,10c-1,3.15-2.05,6-3.07,8.67Z" transform="translate(-11.3 -13.64)" style="fill:#7f7a62"/><path d="M470.66,152.39a23.65,23.65,0,0,1-2.09,1.87,4.41,4.41,0,0,1-2.75.77c-1.46,0-3.48-1-6-3a81,81,0,0,0-10.21-6.48,86.73,86.73,0,0,0-15.93-6.48q-9.56-3-23.18-3-18.9,0-33.5,6.7a66.65,66.65,0,0,0-24.61,19.23q-10,12.51-15.26,30.31t-5.28,40q0,23.05,5.39,40.86t15.26,30a65.16,65.16,0,0,0,24,18.56,74.67,74.67,0,0,0,31.2,6.37q15.81,0,26.47-3.74a85.66,85.66,0,0,0,17.57-8.12,79,79,0,0,0,11-8.13q4.07-3.73,6.48-3.74a5,5,0,0,1,4.39,2.2l5.71,7a63.7,63.7,0,0,1-12.74,12.3,86.37,86.37,0,0,1-17.35,9.89,106.91,106.91,0,0,1-21,6.48,117.91,117.91,0,0,1-23.62,2.31A93.77,93.77,0,0,1,366.41,337a82.73,82.73,0,0,1-29.65-22q-12.42-14.38-19.34-35.26t-6.92-47.45q0-25.05,6.59-45.7a102.86,102.86,0,0,1,19.23-35.59,86.31,86.31,0,0,1,31-23.18q18.34-8.23,42.07-8.23,21.31,0,37.9,6.81a93,93,0,0,1,28.89,18.45Z" transform="translate(-11.3 -13.64)" style="fill:#7f7a62"/><path d="M609.05,119.66A89.94,89.94,0,0,1,643.21,126a76.83,76.83,0,0,1,27.25,18.56,85.55,85.55,0,0,1,18,30q6.48,17.79,6.48,40.86,0,4.83-1.43,6.59a5.45,5.45,0,0,1-4.49,1.76H531.28V228q0,24.61,5.72,43.28t16.25,31.31a67,67,0,0,0,25.49,19,84.23,84.23,0,0,0,33.39,6.37q16.47,0,28.56-3.63A106.26,106.26,0,0,0,661,316.17,111.93,111.93,0,0,0,674.08,308c3.22-2.42,5.57-3.63,7-3.63a5,5,0,0,1,4.39,2.2l5.72,7a59.72,59.72,0,0,1-14,12.3,99.5,99.5,0,0,1-19.34,9.78,140.75,140.75,0,0,1-22.84,6.48,125.86,125.86,0,0,1-24.5,2.42q-22.41,0-40.86-7.8a87,87,0,0,1-31.67-22.74q-13.21-14.94-20.43-36.58T510.41,228a135.33,135.33,0,0,1,6.7-43.39,99.38,99.38,0,0,1,19.34-34.27,88.11,88.11,0,0,1,31-22.52Q585.77,119.67,609.05,119.66Zm.33,15.59a81.93,81.93,0,0,0-30.28,5.28A66.16,66.16,0,0,0,556,155.68a77.35,77.35,0,0,0-15.79,23.73,108,108,0,0,0-8,31h143.9a96,96,0,0,0-4.83-31.53,67.39,67.39,0,0,0-13.6-23.61,58.78,58.78,0,0,0-21.06-14.83A69.53,69.53,0,0,0,609.38,135.25Z" transform="translate(-11.3 -13.64)" style="fill:#7f7a62"/><path d="M997,68.69q-2,3.74-5.71,3.73-2.87,0-7.38-4.06A94.93,94.93,0,0,0,952.4,50.23q-11.56-4.17-28.54-4.17T894,50.89a62.48,62.48,0,0,0-21.6,13.18,56.09,56.09,0,0,0-13.23,19.34,60.06,60.06,0,0,0-4.51,23.06q0,15.82,6.7,26.15a60.46,60.46,0,0,0,17.72,17.57,114.51,114.51,0,0,0,25,12.2q14,4.94,28.71,9.77t28.71,10.66a103.46,103.46,0,0,1,25,14.61,67,67,0,0,1,17.71,21.63q6.72,12.85,6.71,32a100.65,100.65,0,0,1-6.7,36.8,85.87,85.87,0,0,1-19.44,30,91.33,91.33,0,0,1-31.19,20.11q-18.46,7.35-42.19,7.36-30.75,0-52.94-10.88a124.58,124.58,0,0,1-38.88-29.77l6.15-9.66a7.7,7.7,0,0,1,6.15-3.3c1.32,0,3,.88,5.06,2.64s4.54,3.92,7.48,6.48,6.45,5.35,10.56,8.35a87,87,0,0,0,14.3,8.34,97.8,97.8,0,0,0,42.67,9.12q18.48,0,33-5.6a72.13,72.13,0,0,0,24.53-15.27,64.63,64.63,0,0,0,15.28-23A76.33,76.33,0,0,0,990,254.32q0-16.47-6.71-27.13a57.79,57.79,0,0,0-17.71-17.79,114.19,114.19,0,0,0-25-12q-14-4.83-28.71-9.45t-28.71-10.33a98.67,98.67,0,0,1-25-14.61,67,67,0,0,1-17.71-22.18q-6.71-13.29-6.7-33.29a78.62,78.62,0,0,1,5.93-30.09,75,75,0,0,1,17.38-25.6,85.57,85.57,0,0,1,28.27-17.79q16.83-6.71,38.39-6.7,24.19,0,43.45,7.69a104.1,104.1,0,0,1,35.08,23.5Z" transform="translate(-11.3 -13.64)" style="fill:#7f7a62"/><path d="M1148.81,119.66q23.51,0,42.07,8a85.86,85.86,0,0,1,31.31,22.74q12.74,14.73,19.44,35.48t6.7,46.47q0,25.69-6.7,46.35a100.93,100.93,0,0,1-19.44,35.37,84.69,84.69,0,0,1-31.31,22.63q-18.56,7.91-42.07,7.91t-42.07-7.91a85.7,85.7,0,0,1-31.41-22.63,99.72,99.72,0,0,1-19.55-35.37q-6.71-20.65-6.7-46.35t6.7-46.47a99.7,99.7,0,0,1,19.55-35.48,86.9,86.9,0,0,1,31.41-22.74Q1125.31,119.66,1148.81,119.66Zm0,208.48q19.56,0,34.17-6.7a64.86,64.86,0,0,0,24.38-19.22Q1217.14,289.7,1222,272a150.54,150.54,0,0,0,4.83-39.65,150.94,150.94,0,0,0-4.83-39.55q-4.83-17.79-14.61-30.42A65.24,65.24,0,0,0,1183,142.94q-14.62-6.81-34.17-6.81t-34.16,6.81a65.09,65.09,0,0,0-24.38,19.45q-9.78,12.63-14.72,30.42a147.5,147.5,0,0,0-4.94,39.55q0,22,4.94,39.65t14.72,30.21a64.7,64.7,0,0,0,24.38,19.22Q1129.26,328.15,1148.81,328.14Z" transform="translate(-11.3 -13.64)" style="fill:#7f7a62"/><path d="M1330.27,22.11V341.76H1309.4V22.11Z" transform="translate(-11.3 -13.64)" style="fill:#7f7a62"/><path d="M1423,123.17V262.89q0,30.76,14.11,48.22t43,17.47A77.43,77.43,0,0,0,1520,317.7q18.51-10.87,33.29-30.2V123.17h20.87V341.76h-11.5c-4.06,0-6.15-1.9-6.3-5.71l-2-32.52a123.92,123.92,0,0,1-35.09,30.32q-19.92,11.43-44.33,11.43-18.26,0-31.9-5.72a58.5,58.5,0,0,1-22.66-16.47,73,73,0,0,1-13.64-25.93,117.43,117.43,0,0,1-4.62-34.27V123.17Z" transform="translate(-11.3 -13.64)" style="fill:#7f7a62"/><path d="M1704.83,345.28q-22.2,0-34.5-12.31T1658,295V145.58h-31.41a5.85,5.85,0,0,1-4-1.32,4.66,4.66,0,0,1-1.54-3.73V132.4l37.35-2.64,5.22-78.21a6,6,0,0,1,1.63-3.51,4.89,4.89,0,0,1,3.8-1.54h9.78V130h68.76v15.6H1678.9V293.87a46.24,46.24,0,0,0,2.31,15.49,28.89,28.89,0,0,0,6.37,10.65,25,25,0,0,0,9.56,6.15,34.65,34.65,0,0,0,11.86,2,36.28,36.28,0,0,0,13.62-2.31,56.9,56.9,0,0,0,9.89-5.05,63.54,63.54,0,0,0,6.81-5q2.63-2.31,4.17-2.31c1.17,0,2.34.74,3.51,2.2l5.72,9.22a60.86,60.86,0,0,1-21.2,14.83A66.07,66.07,0,0,1,1704.83,345.28Z" transform="translate(-11.3 -13.64)" style="fill:#7f7a62"/><path d="M1838.17,47.82a16.67,16.67,0,0,1-1.65,7.36,21.86,21.86,0,0,1-4.28,6,19.8,19.8,0,0,1-6.15,4.17,18.89,18.89,0,0,1-14.94,0,19.8,19.8,0,0,1-6.15-4.17,20.15,20.15,0,0,1-4.17-6,17.62,17.62,0,0,1-1.54-7.36A19.83,19.83,0,0,1,1805,34a20,20,0,0,1,6.15-4.18,19,19,0,0,1,14.94,0,20,20,0,0,1,6.15,4.18,20.75,20.75,0,0,1,4.28,6.26A18.09,18.09,0,0,1,1838.17,47.82ZM1829,123.17V341.76h-20.88V123.17Z" transform="translate(-11.3 -13.64)" style="fill:#7f7a62"/><path d="M1989.53,119.66q23.51,0,42.07,8a85.86,85.86,0,0,1,31.31,22.74q12.74,14.73,19.44,35.48t6.7,46.47q0,25.69-6.7,46.35a100.93,100.93,0,0,1-19.44,35.37,84.69,84.69,0,0,1-31.31,22.63q-18.57,7.91-42.07,7.91t-42.07-7.91a85.54,85.54,0,0,1-31.41-22.63,99.89,99.89,0,0,1-19.56-35.37q-6.71-20.65-6.7-46.35t6.7-46.47q6.71-20.76,19.56-35.48a86.73,86.73,0,0,1,31.41-22.74Q1966,119.66,1989.53,119.66Zm0,208.48q19.56,0,34.16-6.7a64.81,64.81,0,0,0,24.39-19.22q9.77-12.53,14.61-30.21a150.54,150.54,0,0,0,4.83-39.65,150.94,150.94,0,0,0-4.83-39.55q-4.84-17.79-14.61-30.42a65.2,65.2,0,0,0-24.39-19.45q-14.61-6.81-34.16-6.81t-34.16,6.81A65.09,65.09,0,0,0,1931,162.39q-9.78,12.63-14.72,30.42a147.48,147.48,0,0,0-5,39.55,147.09,147.09,0,0,0,5,39.65q4.93,17.69,14.72,30.21a64.7,64.7,0,0,0,24.38,19.22Q1970,328.15,1989.53,328.14Z" transform="translate(-11.3 -13.64)" style="fill:#7f7a62"/><path d="M2144,341.76V123.17h11.42q5.71,0,6.59,5.49l2,33a122.54,122.54,0,0,1,34.82-30.43q19.88-11.53,44.26-11.53,18,0,31.75,5.71a58.43,58.43,0,0,1,22.74,16.47,73.11,73.11,0,0,1,13.62,25.93,117.78,117.78,0,0,1,4.61,34.27V341.76h-20.87V202q0-30.75-14.06-48.22t-43.06-17.47a76.18,76.18,0,0,0-40,11.1q-18.45,11.09-32.95,30.42V341.76Z" transform="translate(-11.3 -13.64)" style="fill:#7f7a62"/><path d="M2502.05,150.41a5.09,5.09,0,0,1-4.83,3.08c-1.62,0-3.7-.92-6.26-2.75a101.49,101.49,0,0,0-10.11-6.15,81.6,81.6,0,0,0-15.38-6.15q-9.12-2.74-22.3-2.75a65.65,65.65,0,0,0-21.63,3.4,54,54,0,0,0-16.7,9.09,41.43,41.43,0,0,0-10.77,13.26,34.6,34.6,0,0,0-3.84,15.88q0,10.31,5.27,17.1a45.49,45.49,0,0,0,13.84,11.6,105.56,105.56,0,0,0,19.45,8.33q10.86,3.51,22.29,7t22.3,7.8a84,84,0,0,1,19.44,10.66,50.15,50.15,0,0,1,13.84,15.59q5.28,9.22,5.28,22.41a68,68,0,0,1-5.17,26.58,60.27,60.27,0,0,1-14.94,21.31,71.35,71.35,0,0,1-24,14.28q-14.28,5.28-32.51,5.28-23.07,0-39.77-7.36a111.78,111.78,0,0,1-29.88-19.23l5.06-7.47a8.39,8.39,0,0,1,2.41-2.63,6.67,6.67,0,0,1,3.74-.88c1.9,0,4.25,1.17,7,3.51a86.61,86.61,0,0,0,10.87,7.58,89.69,89.69,0,0,0,16.7,7.58q10,3.53,24.71,3.52a70.87,70.87,0,0,0,24.39-3.85,50.62,50.62,0,0,0,17.57-10.43,43.57,43.57,0,0,0,10.66-15.49,49.22,49.22,0,0,0,3.62-18.78q0-11-5.27-18.24a45.21,45.21,0,0,0-13.84-12.3,97,97,0,0,0-19.44-8.57q-10.87-3.51-22.41-7T2409,227.52A80.78,80.78,0,0,1,2389.57,217a51,51,0,0,1-13.84-15.49q-5.28-9.12-5.27-22.74a52.15,52.15,0,0,1,5.05-22.41,57,57,0,0,1,14.39-18.89,70.61,70.61,0,0,1,22.74-13,88.28,88.28,0,0,1,30.1-4.83q20,0,35.47,5.79a86.55,86.55,0,0,1,28.45,17.71Z" transform="translate(-11.3 -13.64)" style="fill:#7f7a62"/><path d="M696.44,42.94c0,.08.11.07.17,0,.26,0,.51,0,.77,0h64.49l.78,0v0q0,32.81,0,65.61c0,.29,0,.57,0,.85,0,.08,0,.15.09.13l.14,0a4.1,4.1,0,0,0,1.44,0,24.84,24.84,0,0,0,8.15-1.8,19.59,19.59,0,0,0,5.59-3.36,32.73,32.73,0,0,0,3.32-3.24,30.25,30.25,0,0,0,2-2.51,39.89,39.89,0,0,0,4-7.95A54.27,54.27,0,0,0,790,81.85c.53-2.55.94-5.11,1.3-7.69a64.9,64.9,0,0,0,.75-7.35c.19-8.3,0-16.6.13-24.9.12-9.16,0-18.31,0-27.47,0-.67-.18-.8-.81-.8q-19.2,0-38.41,0c-2.25,0-4.49.09-6.74.23-2.41.16-4.84.16-7.25.29-1.75.1-3.49.19-5.23.33A86.52,86.52,0,0,0,725,15.7a56,56,0,0,0-6.27,1.49,52.14,52.14,0,0,0-6.29,2.33A27.44,27.44,0,0,0,704.15,25c-.76.76-1.48,1.58-2.23,2.34a17.83,17.83,0,0,0-3.45,5.47,25.48,25.48,0,0,0-2,7.1,8.13,8.13,0,0,0-.09,3.07Zm3.65,14.84a34.75,34.75,0,0,0,5,6.74,24.46,24.46,0,0,0,4.44,3.74,23.61,23.61,0,0,0,9.9,3.58,25.2,25.2,0,0,0,6.55.09c.2,0,.54-.19.62.12s-.24.3-.42.42c-1.73,1.14-3.51,2.19-5.33,3.2a57.39,57.39,0,0,1-8.31,3.65A58.41,58.41,0,0,1,704,81.66a63.27,63.27,0,0,1-10,1.14c-1.47,0-2.94-.08-4.41.08a1.31,1.31,0,0,0-1,2.12,17.75,17.75,0,0,0,1.16,1.41q14.46,14.46,28.92,28.91a26.28,26.28,0,0,0,2.35,2c.46.36.93.54,1.44-.09a2.78,2.78,0,0,0,.61-1.66c.15-2.28,0-4.56.25-6.85s.54-4.7,1-7a62,62,0,0,1,3-10.26A60.43,60.43,0,0,1,732.66,81a7.48,7.48,0,0,1,1.55-2.1c-.07.71-.16,1.26-.17,1.82A29.21,29.21,0,0,0,735.23,91a20.66,20.66,0,0,0,4.92,8.36c1.23,1.2,2.39,2.47,3.71,3.58a29.31,29.31,0,0,0,3.36,2.4c.67.43.74.36.74-.42q0-23.22,0-46.43c0-.66-.17-.81-.82-.81q-23.17,0-46.35,0A1.29,1.29,0,0,0,700.09,57.78Z" transform="translate(-11.3 -13.64)" style="fill:#7f7a62"/><path d="M696.43,42.94a8.13,8.13,0,0,1,.09-3.07,25.48,25.48,0,0,1,2-7.1,17.83,17.83,0,0,1,3.45-5.47c.75-.76,1.47-1.58,2.23-2.34a27.44,27.44,0,0,1,8.26-5.44,52.14,52.14,0,0,1,6.29-2.33A56,56,0,0,1,725,15.7a86.52,86.52,0,0,1,8.78-1.19c1.74-.14,3.48-.23,5.23-.33,2.41-.13,4.84-.13,7.25-.29,2.25-.14,4.49-.23,6.74-.23q19.21,0,38.41,0c.63,0,.82.13.81.8,0,9.16.08,18.31,0,27.47-.11,8.3.06,16.6-.13,24.9a64.9,64.9,0,0,1-.75,7.35c-.36,2.58-.77,5.14-1.3,7.69a54.27,54.27,0,0,1-2.56,8.91,39.89,39.89,0,0,1-4,7.95,30.25,30.25,0,0,1-2,2.51,32.73,32.73,0,0,1-3.32,3.24,19.59,19.59,0,0,1-5.59,3.36,24.84,24.84,0,0,1-8.15,1.8,4.1,4.1,0,0,1-1.44,0v-66c0-.14,0-.28,0-.42s-.14-.18-.26-.21v0c-.11-.41-.46-.26-.71-.26H697.22C697,42.76,696.65,42.67,696.43,42.94Z" transform="translate(-11.3 -13.64)" style="fill:#7f7a62"/><path d="M700.09,57.78a1.29,1.29,0,0,1,.72-.07q23.18,0,46.35,0c.65,0,.82.15.82.81q0,23.21,0,46.43c0,.78-.07.85-.74.42a29.31,29.31,0,0,1-3.36-2.4c-1.32-1.11-2.48-2.38-3.71-3.58A20.66,20.66,0,0,1,735.23,91,29.21,29.21,0,0,1,734,80.76c0-.56.1-1.11.17-1.82a7.48,7.48,0,0,0-1.55,2.1,60.43,60.43,0,0,0-5.33,10.37,62,62,0,0,0-3,10.26c-.44,2.34-.73,4.68-1,7s-.1,4.57-.25,6.85a2.78,2.78,0,0,1-.61,1.66c-.51.63-1,.45-1.44.09a26.28,26.28,0,0,1-2.35-2q-14.47-14.44-28.92-28.91A17.75,17.75,0,0,1,688.67,85a1.31,1.31,0,0,1,1-2.12c1.47-.16,2.94,0,4.41-.08a63.27,63.27,0,0,0,10-1.14,58.41,58.41,0,0,0,8.55-2.34,57.39,57.39,0,0,0,8.31-3.65c1.82-1,3.6-2.06,5.33-3.2.18-.12.46-.24.42-.42s-.42-.15-.62-.12a25.2,25.2,0,0,1-6.55-.09,23.61,23.61,0,0,1-9.9-3.58,24.46,24.46,0,0,1-4.44-3.74A34.75,34.75,0,0,1,700.09,57.78Z" transform="translate(-11.3 -13.64)" style="fill:#7f7a62"/><path d="M762.66,43c.12,0,.24.07.26.21s0,.28,0,.42v66l-.14,0-.09-.13c0-.28,0-.56,0-.85Q762.66,75.85,762.66,43Z" transform="translate(-11.3 -13.64)" style="fill:#7f7a62"/><path d="M696.43,42.94c.22-.27.52-.18.79-.18h64.72c.25,0,.6-.15.71.26l-.78,0H697.38c-.26,0-.51,0-.77,0l-.17,0Z" transform="translate(-11.3 -13.64)" style="fill:#7f7a62"/><path d="M696.44,42.94l.17,0C696.55,43,696.49,43,696.44,42.94Z" transform="translate(-11.3 -13.64)" style="fill:#7f7a62"/><path d="M762.7,109.5l.09.13C762.67,109.65,762.67,109.58,762.7,109.5Z" transform="translate(-11.3 -13.64)" style="fill:#7f7a62"/></svg>